# xmcd CD database file
#
# Track frame offsets:
#	150
#	12875
#	25780
#	36045
#	47767
#	60832
#	72240
#	85543
#	96620
#	108495
#	119852
#	132007
#	144425
#	155565
#	167847
#	180597
#	192810
#	205373
#	216403
#	228473
#
# Disc length: 3184 seconds
#
# Revision: 1
# Processed by: cddbd v1.5.2PL0 Copyright (c) Steve Scherf et al.
# Submitted via: jetAudio 7
#
DISCID=190c6e14
DTITLE=Chet Atkins - The Very Best Of Chet Atkins-Country Gentleman Dis
DTITLE=c 1
DYEAR=1900
DGENRE=Acoustic
TTITLE0=Guitar Blues
TTITLE1=Money Marbles and Chalk
TTITLE2=Music In My Heart
TTITLE3=Canned Heat
TTITLE4=The Bug Dance
TTITLE5=The Nashville Jump
TTITLE6=I'm Gonna Get Tight
TTITLE7=I Know My Baby Loves Me
TTITLE8=My Guitar Is My Sweetheart
TTITLE9=I've Been Working On The Guitar
TTITLE10=Dizzy Strings
TTITLE11=Telling My Troubles To My Old Guitar
TTITLE12=Gallopin' Guitar
TTITLE13=Dance Of The Golden Rod
TTITLE14=Barber Shop Rag
TTITLE15=Centipede Boogie
TTITLE16=One More Chance
TTITLE17=The Old Buck Dance
TTITLE18=Indian Love Call
TTITLE19=Main Street Breakdown
EXTD=
EXTT0=
EXTT1=
EXTT2=
EXTT3=
EXTT4=
EXTT5=
EXTT6=
EXTT7=
EXTT8=
EXTT9=
EXTT10=
EXTT11=
EXTT12=
EXTT13=
EXTT14=
EXTT15=
EXTT16=
EXTT17=
EXTT18=
EXTT19=
PLAYORDER=
